HIERARCHY
ROOT Pelvis
{
	OFFSET 0.000000 0.941512 0.000000
	CHANNELS 6 Xposition Yposition Zposition Zrotation Yrotation Xrotation 
	JOINT Pelvis_L_Hip
	{
		OFFSET 0.000000 0.000000 0.000000
		CHANNELS 3 Zrotation Yrotation Xrotation
		JOINT L_Hip
		{
			OFFSET 0.062321 -0.080322 -0.016990
			CHANNELS 3 Zrotation Yrotation Xrotation
			JOINT L_Knee
			{
				OFFSET 0.093051 -0.381305 -0.029784
				CHANNELS 3 Zrotation Yrotation Xrotation
				JOINT L_Ankle
				{
					OFFSET -0.010371 -0.431000 -0.033614
					CHANNELS 3 Zrotation Yrotation Xrotation
					End Site #name: L_Foot
					{
						OFFSET 0.069299 -0.038670 0.119418
					}
				}
			}
		}
	}
	JOINT Pelvis_R_Hip
	{
		OFFSET 0.000000 0.000000 0.000000
		CHANNELS 3 Zrotation Yrotation Xrotation
		JOINT R_Hip
		{
			OFFSET -0.055334 -0.094904 -0.002373
			CHANNELS 3 Zrotation Yrotation Xrotation
			JOINT R_Knee
			{
				OFFSET -0.064207 -0.384370 -0.019592
				CHANNELS 3 Zrotation Yrotation Xrotation
				JOINT R_Ankle
				{
					OFFSET 0.025418 -0.419734 -0.065953
					CHANNELS 3 Zrotation Yrotation Xrotation
					End Site #name: R_Foot
					{
						OFFSET -0.057233 -0.039888 0.132134
					}
				}
			}
		}
	}
	JOINT Pelvis_Spine1
	{
		OFFSET 0.000000 0.000000 0.000000
		CHANNELS 3 Zrotation Yrotation Xrotation
		JOINT Spine1
		{
			OFFSET -0.005562 0.124093 -0.043360
			CHANNELS 3 Zrotation Yrotation Xrotation
			JOINT Spine2
			{
				OFFSET 0.012244 0.139499 0.029894
				CHANNELS 3 Zrotation Yrotation Xrotation
				JOINT Spine3
				{
					OFFSET -0.002556 0.056561 0.009225
					CHANNELS 3 Zrotation Yrotation Xrotation
					JOINT Spine3_Neck
					{
						OFFSET 0.000000 0.000000 0.000000
						CHANNELS 3 Zrotation Yrotation Xrotation
						JOINT Neck
						{
							OFFSET -0.005205 0.217920 -0.024551
							CHANNELS 3 Zrotation Yrotation Xrotation
							End Site #name: Head
							{
								OFFSET 0.002365 0.091850 0.046637
							}
						}
					}
					JOINT Spine3_L_Collar
					{
						OFFSET 0.000000 0.000000 0.000000
						CHANNELS 3 Zrotation Yrotation Xrotation
						JOINT L_Collar
						{
							OFFSET 0.072225 0.116603 -0.009480
							CHANNELS 3 Zrotation Yrotation Xrotation
							JOINT L_Shoulder
							{
								OFFSET 0.115937 -0.058643 -0.021018
								CHANNELS 3 Zrotation Yrotation Xrotation
								JOINT L_Elbow
								{
									OFFSET 0.021994 -0.254722 -0.024492
									CHANNELS 3 Zrotation Yrotation Xrotation
									End Site #name: L_Wrist
									{
										OFFSET 0.048810 -0.240214 0.103329
									}
								}
							}
						}
					}
					JOINT Spine3_R_Collar
					{
						OFFSET 0.000000 0.000000 0.000000
						CHANNELS 3 Zrotation Yrotation Xrotation
						JOINT R_Collar
						{
							OFFSET -0.073372 0.120704 -0.024611
							CHANNELS 3 Zrotation Yrotation Xrotation
							JOINT R_Shoulder
							{
								OFFSET -0.108089 -0.054969 -0.020504
								CHANNELS 3 Zrotation Yrotation Xrotation
								JOINT R_Elbow
								{
									OFFSET -0.033684 -0.260739 0.009889
									CHANNELS 3 Zrotation Yrotation Xrotation
									End Site #name: R_Wrist
									{
										OFFSET -0.067980 -0.232763 0.118463
									}
								}
							}
						}
					}
				}
			}
		}
	}
}
MOTION
Frames: 14
Frame Time: 0.041667
0.000000 0.952797 0.000000 -2.787911 -0.805746 6.337968 0.000000 0.000000 0.000000 -2.344659 -0.686141 -3.392781 9.543975 -0.552666 -1.858524 -6.018541 -12.605142 3.313404 0.000000 0.000000 0.000000 2.800278 0.658812 -4.328597 -3.184015 0.464688 -0.386737 2.645094 4.132291 2.991890 0.000000 0.000000 0.000000 6.362828 1.414927 -19.777002 -3.908323 4.451278 41.041542 3.302629 1.090183 -38.883854 0.000000 0.000000 0.000000 3.164445 -3.165426 27.661984 0.000000 0.000000 0.000000 28.432277 -2.457891 3.740606 -19.290284 5.082310 16.667163 7.370177 -6.476652 -50.734168 0.000000 0.000000 0.000000 -32.136413 -0.010413 7.901124 4.316725 -4.637355 30.920017 -0.869079 26.843751 -57.325131 
0.000218 0.952894 0.000093 -2.770694 -0.644477 6.313779 0.000000 0.000000 0.000000 -2.298894 -0.711616 -3.481726 9.502629 -0.561293 -1.750647 -6.035797 -12.740391 3.271558 0.000000 0.000000 0.000000 2.845852 0.657583 -4.324169 -3.231420 0.472349 -0.387965 2.651587 4.084791 3.043525 0.000000 0.000000 0.000000 6.364568 1.444584 -19.987159 -4.029254 4.508056 41.136897 3.311317 1.303552 -38.980345 0.000000 0.000000 0.000000 2.585273 -2.719056 27.014512 0.000000 0.000000 0.000000 28.388511 -2.819373 3.463009 -18.039394 4.499125 15.297326 8.529870 -5.826300 -52.849608 0.000000 0.000000 0.000000 -32.397991 0.325033 7.616053 3.269035 -4.386538 30.556567 -2.310755 27.017582 -60.253001 
0.000230 0.952922 -0.000057 -2.689860 -0.284472 6.150469 0.000000 0.000000 0.000000 -2.301094 -0.733676 -3.568896 9.456356 -0.582622 -1.512321 -6.164006 -13.030116 3.318261 0.000000 0.000000 0.000000 2.834929 0.643074 -4.237113 -3.244802 0.498308 -0.134339 2.515938 3.756647 2.991497 0.000000 0.000000 0.000000 6.230342 1.446144 -19.956335 -4.339744 4.570443 40.569466 3.476964 1.603485 -38.352048 0.000000 0.000000 0.000000 1.935048 -2.248273 26.343070 0.000000 0.000000 0.000000 28.708418 -3.185796 3.299025 -16.189213 3.822828 13.702092 8.374956 -6.564916 -54.382373 0.000000 0.000000 0.000000 -32.948105 0.492353 7.547236 2.099030 -4.168313 30.522881 -2.866099 28.418866 -63.038649 
0.000310 0.953373 -0.000080 -2.552464 0.171031 5.856536 0.000000 0.000000 0.000000 -2.390984 -0.708362 -3.493839 9.452330 -0.602416 -1.309545 -6.253980 -13.383866 3.275884 0.000000 0.000000 0.000000 2.815066 0.576717 -3.876094 -3.275854 0.508124 -0.094037 2.362367 3.330832 2.970495 0.000000 0.000000 0.000000 5.939189 1.451568 -19.897107 -4.638362 4.661845 40.475065 3.653956 1.844087 -38.129458 0.000000 0.000000 0.000000 1.572619 -1.976528 25.344897 0.000000 0.000000 0.000000 28.408565 -3.443794 3.072589 -13.570765 3.210258 12.749281 7.999229 -7.582031 -55.565586 0.000000 0.000000 0.000000 -32.711333 0.471581 7.388415 1.589391 -4.134544 31.020625 -4.098142 27.348624 -64.209859 
0.000356 0.953762 -0.000796 -2.603788 0.464457 5.808241 0.000000 0.000000 0.000000 -2.355647 -0.697131 -3.447670 9.604935 -0.596095 -1.439294 -6.399275 -13.623323 3.370164 0.000000 0.000000 0.000000 2.930654 0.578756 -3.895386 -3.205686 0.516112 0.108103 2.213897 3.031072 2.867312 0.000000 0.000000 0.000000 5.526377 1.479485 -19.964875 -4.610270 4.574905 40.220200 3.915187 2.077998 -38.076573 0.000000 0.000000 0.000000 1.039905 -1.609899 25.143297 0.000000 0.000000 0.000000 28.328726 -3.192159 3.327932 -12.874591 2.875954 11.598529 8.354932 -7.142927 -55.373320 0.000000 0.000000 0.000000 -32.174812 0.128413 7.464099 2.182205 -4.169238 30.409678 -5.712910 23.500605 -62.762877 
0.000144 0.953351 -0.002732 -2.725923 0.420804 5.802073 0.000000 0.000000 0.000000 -2.199003 -0.716133 -3.485600 9.645441 -0.595384 -1.468583 -6.437643 -13.616835 3.430358 0.000000 0.000000 0.000000 3.095993 0.597049 -4.011925 -3.201104 0.520048 0.163468 2.225729 2.914908 2.971052 0.000000 0.000000 0.000000 5.097738 1.448968 -19.571974 -4.327919 4.314095 39.231594 4.141890 2.245765 -37.812065 0.000000 0.000000 0.000000 0.698675 -1.349539 24.791443 0.000000 0.000000 0.000000 27.646600 -2.778975 3.528503 -14.303864 2.955136 10.992675 9.829388 -5.183388 -55.290188 0.000000 0.000000 0.000000 -30.934003 -0.786506 7.870080 3.610847 -3.937152 26.931858 -8.180697 16.692529 -58.462386 
0.000064 0.952829 -0.005579 -2.660563 -0.049342 5.983164 0.000000 0.000000 0.000000 -2.370531 -0.752592 -3.656698 9.733149 -0.600247 -1.493318 -6.249717 -13.277853 3.320769 0.000000 0.000000 0.000000 2.920710 0.662037 -4.336626 -3.154175 0.497364 0.007665 2.354895 3.020573 3.157737 0.000000 0.000000 0.000000 4.732350 1.482905 -19.696180 -4.113789 4.185568 38.555710 3.935870 2.348960 -37.749406 0.000000 0.000000 0.000000 0.763138 -1.394568 24.950097 0.000000 0.000000 0.000000 26.479386 -1.097219 4.669981 -17.118667 2.452516 7.306863 12.710000 -1.666060 -56.498173 0.000000 0.000000 0.000000 -29.872844 -1.995988 8.606447 5.704990 -3.096727 19.999988 -9.516097 10.864567 -51.130500 
-0.000573 0.951995 -0.008746 -2.576925 -0.556770 5.929138 0.000000 0.000000 0.000000 -2.543768 -0.696362 -3.470844 9.814345 -0.586771 -1.696400 -6.044683 -12.853424 3.229051 0.000000 0.000000 0.000000 2.825770 0.693179 -4.495209 -3.269537 0.520666 0.079460 2.382399 3.281668 3.016977 0.000000 0.000000 0.000000 4.883159 1.492757 -19.818828 -4.174966 4.261455 38.350839 3.489022 2.271786 -38.437554 0.000000 0.000000 0.000000 1.009460 -1.584359 25.631040 0.000000 0.000000 0.000000 25.350025 -0.459004 4.873696 -21.085405 1.003706 0.829609 20.221401 7.849982 -57.182440 0.000000 0.000000 0.000000 -29.309079 -1.803503 8.275779 9.748637 -1.908864 12.788198 -14.354191 3.382756 -47.946002 
-0.000915 0.951691 -0.009975 -2.599318 -0.647600 5.732164 0.000000 0.000000 0.000000 -2.548768 -0.643963 -3.269224 9.901448 -0.595100 -1.667590 -6.019839 -12.868194 3.185259 0.000000 0.000000 0.000000 2.892242 0.671230 -4.386737 -3.361094 0.541979 0.157719 2.452612 3.519115 3.002015 0.000000 0.000000 0.000000 4.919130 1.558724 -20.327305 -3.853374 4.129359 38.665685 3.151960 2.168615 -39.231398 0.000000 0.000000 0.000000 0.921221 -1.572791 26.758575 0.000000 0.000000 0.000000 25.088027 -2.292431 3.260687 -23.224467 -0.992706 -5.770206 28.836322 17.755891 -52.884562 0.000000 0.000000 0.000000 -28.556915 -0.655558 7.011481 12.062772 -0.454133 6.663688 -22.339798 -6.202983 -46.785837 
-0.001328 0.952228 -0.010210 -2.620646 -0.538495 5.782831 0.000000 0.000000 0.000000 -2.419792 -0.719777 -3.530690 9.849687 -0.620447 -1.402959 -6.023087 -13.032228 3.110418 0.000000 0.000000 0.000000 2.981804 0.711091 -4.600651 -3.391497 0.567285 0.377808 2.468545 3.658575 2.946605 0.000000 0.000000 0.000000 4.588675 1.629947 -20.781543 -3.429162 3.936779 39.219761 2.950863 1.869229 -40.427898 0.000000 0.000000 0.000000 0.980875 -1.627147 27.376708 0.000000 0.000000 0.000000 25.866220 -4.329324 1.691336 -21.488013 -1.972144 -8.983168 33.002592 21.982301 -52.186074 0.000000 0.000000 0.000000 -28.157896 0.265899 6.110743 11.131349 0.581142 2.255409 -27.351684 -11.566209 -47.790590 
-0.001965 0.952107 -0.009717 -2.468746 -0.542871 6.005941 0.000000 0.000000 0.000000 -2.477493 -0.824087 -3.941096 9.799479 -0.643909 -1.160463 -5.977721 -13.042856 3.037843 0.000000 0.000000 0.000000 2.845916 0.764254 -4.865963 -3.336903 0.549750 0.281654 2.538481 3.632854 3.111914 0.000000 0.000000 0.000000 4.032617 1.712036 -21.289714 -2.967726 3.705400 39.474268 2.940458 1.720027 -40.935323 0.000000 0.000000 0.000000 0.616234 -1.340143 27.591732 0.000000 0.000000 0.000000 27.980256 -5.123888 1.442866 -18.086681 -1.918555 -9.403164 30.004393 19.434020 -57.931524 0.000000 0.000000 0.000000 -28.263693 0.709496 5.785548 8.431775 1.263243 -1.850460 -29.000207 -13.134946 -51.914731 
-0.002076 0.952180 -0.008433 -2.388400 -0.431408 6.161919 0.000000 0.000000 0.000000 -2.594571 -0.877776 -4.171438 9.870933 -0.657794 -1.081789 -5.976337 -13.065978 3.023788 0.000000 0.000000 0.000000 2.725458 0.786620 -4.971830 -3.234459 0.532901 0.274973 2.574115 3.731085 3.125578 0.000000 0.000000 0.000000 3.780830 1.807314 -22.025431 -3.068825 3.783867 39.858651 3.101582 2.357166 -41.093729 0.000000 0.000000 0.000000 -0.045615 -0.918282 27.598032 0.000000 0.000000 0.000000 29.265246 -4.635589 2.288526 -13.726015 -1.862289 -10.275554 23.980216 12.073793 -63.806214 0.000000 0.000000 0.000000 -28.807564 1.746760 4.926420 4.937188 0.944630 -2.377745 -29.734159 -13.625120 -57.046523 
-0.001430 0.952320 -0.006455 -2.320903 0.202696 6.060250 0.000000 0.000000 0.000000 -2.641068 -0.854723 -4.102149 9.895951 -0.642997 -1.205352 -6.136066 -13.585760 3.006256 0.000000 0.000000 0.000000 2.681718 0.713244 -4.571453 -3.171124 0.507631 0.087681 2.485150 3.463214 3.144505 0.000000 0.000000 0.000000 3.607000 1.885157 -22.689671 -3.217610 3.796070 40.012045 3.331125 2.712459 -40.971037 0.000000 0.000000 0.000000 -0.480224 -0.683911 28.015837 0.000000 0.000000 0.000000 30.154491 -5.217868 2.088060 -9.485423 -1.533906 -9.993807 17.885051 2.740886 -68.410260 0.000000 0.000000 0.000000 -29.505717 2.380185 4.454047 0.821016 0.351715 -1.766173 -27.916289 -10.460117 -63.261786 
-0.000949 0.952402 -0.006279 -2.167494 0.821378 6.083772 0.000000 0.000000 0.000000 -2.745454 -0.915166 -4.360119 9.860864 -0.645204 -1.147246 -6.336440 -14.006679 3.097410 0.000000 0.000000 0.000000 2.629850 0.730800 -4.646026 -3.130598 0.531046 0.405283 2.230741 2.966448 2.962361 0.000000 0.000000 0.000000 3.288108 1.935225 -23.127411 -3.391690 3.825229 40.195090 3.608509 2.799273 -40.979016 0.000000 0.000000 0.000000 -0.843437 -0.461564 28.489071 0.000000 0.000000 0.000000 31.212523 -6.797207 0.928260 -5.129761 -1.257269 -9.799748 12.952840 -5.798160 -70.065302 0.000000 0.000000 0.000000 -30.458581 3.226477 3.905968 -3.233191 -0.187008 -0.941264 -25.343690 -5.359593 -68.373166 
